<?xml version="1.0" standalone="no"?>
<!DOCTYPE svg PUBLIC "-//W3C//DTD SVG 20010904//EN"
 "http://www.w3.org/TR/2001/REC-SVG-20010904/DTD/svg10.dtd">
<svg version="1.0" xmlns="http://www.w3.org/2000/svg"
 width="512.000000pt" height="512.000000pt" viewBox="0 0 512.000000 512.000000"
 preserveAspectRatio="xMidYMid meet">

<g transform="translate(0.000000,512.000000) scale(0.100000,-0.100000)"
fill="#000000" stroke="none">
<path d="M762 5104 l-22 -15 0 -588 c0 -491 2 -590 14 -607 14 -18 31 -19 293
-22 271 -3 280 -2 306 18 l27 21 0 585 c0 571 0 584 -20 604 -19 19 -33 20
-298 20 -235 0 -281 -2 -300 -16z"/>
<path d="M2260 5100 c-20 -20 -20 -33 -20 -602 0 -321 4 -588 8 -594 20 -30
55 -34 312 -34 257 0 292 4 312 34 4 6 8 273 8 594 0 569 0 582 -20 602 -19
19 -33 20 -300 20 -267 0 -281 -1 -300 -20z"/>
<path d="M3760 5100 c-20 -20 -20 -33 -20 -604 l0 -585 26 -20 c25 -20 39 -21
291 -21 260 0 295 4 315 34 4 6 8 275 8 598 l0 587 -22 15 c-19 14 -65 16
-300 16 -265 0 -279 -1 -298 -20z"/>
<path d="M20 4540 c-20 -20 -20 -33 -20 -570 l0 -550 2560 0 2560 0 0 550 c0
537 0 550 -20 570 -19 19 -33 20 -330 20 l-310 0 0 -330 c0 -365 0 -368 -62
-412 -32 -23 -38 -23 -323 -26 -285 -3 -291 -2 -334 20 -80 42 -81 45 -81 420
l0 328 -350 0 -350 0 0 -332 c0 -316 -1 -335 -20 -366 -12 -19 -38 -41 -63
-52 -38 -18 -67 -20 -317 -20 -250 0 -279 2 -317 20 -25 11 -51 33 -63 52 -19
31 -20 50 -20 366 l0 332 -350 0 -350 0 0 -328 c0 -375 -1 -378 -81 -420 -43
-22 -49 -23 -334 -20 -285 3 -291 3 -323 26 -62 44 -62 47 -62 412 l0 330
-310 0 c-297 0 -311 -1 -330 -20z"/>
<path d="M0 1692 l0 -1649 23 -21 23 -22 2515 0 2516 0 21 23 22 23 0 1647 0
1647 -2560 0 -2560 0 0 -1648z m4778 1356 c17 -17 17 -2739 0 -2756 -17 -17
-4419 -17 -4436 0 -17 17 -17 2739 0 2756 17 17 4419 17 4436 0z"/>
<path d="M410 1675 l0 -1315 2150 0 2150 0 0 1315 0 1315 -2150 0 -2150 0 0
-1315z m2207 1114 c56 -59 110 -154 124 -214 10 -43 9 -62 -2 -97 -11 -34 -13
-107 -11 -335 l2 -292 293 -3 c277 -3 294 -4 340 -25 75 -35 121 -77 158 -145
l34 -63 3 -287 3 -288 50 0 c60 0 105 -18 139 -54 25 -27 25 -29 28 -246 l3
-219 -23 -6 c-13 -3 -561 -4 -1218 -3 l-1195 3 0 222 0 221 25 27 c34 37 79
55 139 55 l50 0 3 278 3 277 28 57 c34 69 115 146 183 173 44 17 80 20 331 23
l283 3 2 292 c2 228 0 301 -11 335 -11 35 -12 54 -2 97 21 92 136 255 181 255
11 0 36 -18 57 -41z"/>
<path d="M2513 2678 c-66 -99 -79 -154 -47 -203 15 -23 22 -25 94 -25 72 0 79
2 94 25 18 28 21 71 6 112 -12 30 -91 153 -100 153 -3 0 -24 -28 -47 -62z"/>
<path d="M2460 2110 l0 -260 100 0 100 0 0 260 0 260 -100 0 -100 0 0 -260z"/>
<path d="M1817 1756 c-106 -39 -177 -134 -177 -239 0 -30 3 -38 14 -34 27 11
160 36 251 48 126 16 392 6 518 -21 54 -11 153 -40 222 -64 249 -88 453 -117
676 -97 71 6 136 14 145 18 13 5 15 24 12 123 -3 110 -5 120 -33 166 -19 30
-49 60 -79 79 l-49 30 -731 2 c-596 2 -738 0 -769 -11z"/>
<path d="M1950 1460 c-100 -10 -185 -25 -257 -46 l-53 -15 0 -179 0 -180 920
0 920 0 0 125 0 125 -47 -8 c-27 -4 -138 -7 -248 -7 -241 1 -306 12 -555 95
-96 32 -218 65 -270 74 -122 20 -302 27 -410 16z"/>
<path d="M1436 944 c-24 -24 -27 -47 -24 -209 l3 -150 1145 0 1145 0 3 150 c3
162 0 185 -24 209 -14 14 -130 16 -1124 16 -994 0 -1110 -2 -1124 -16z"/>
</g>
</svg>
