<?xml version="1.0" standalone="no"?>
<!DOCTYPE svg PUBLIC "-//W3C//DTD SVG 20010904//EN"
 "http://www.w3.org/TR/2001/REC-SVG-20010904/DTD/svg10.dtd">
<svg version="1.0" xmlns="http://www.w3.org/2000/svg"
 width="512.000000pt" height="512.000000pt" viewBox="0 0 512.000000 512.000000"
 preserveAspectRatio="xMidYMid meet">

<g transform="translate(0.000000,512.000000) scale(0.100000,-0.100000)"
fill="#000000" stroke="none">
<path d="M720 3976 c0 -6 1598 -1178 1640 -1203 126 -74 301 -76 440 -5 45 23
1603 1155 1650 1198 12 12 -274 14 -1858 14 -1030 0 -1872 -2 -1872 -4z"/>
<path d="M432 2532 l3 -1250 30 -44 c20 -28 49 -52 84 -71 l55 -27 1955 0
1956 0 52 24 c62 29 109 89 118 149 3 23 4 579 3 1235 l-3 1193 -835 -611
c-591 -433 -858 -623 -915 -650 -126 -62 -234 -83 -385 -77 -139 5 -237 31
-344 90 -31 18 -439 313 -907 657 -468 344 -855 627 -860 628 -6 2 -8 -483 -7
-1246z"/>
</g>
</svg>
