<?xml version="1.0" standalone="no"?>
<!DOCTYPE svg PUBLIC "-//W3C//DTD SVG 20010904//EN"
 "http://www.w3.org/TR/2001/REC-SVG-20010904/DTD/svg10.dtd">
<svg version="1.0" xmlns="http://www.w3.org/2000/svg"
 width="512.000000pt" height="512.000000pt" viewBox="0 0 512.000000 512.000000"
 preserveAspectRatio="xMidYMid meet">

<g transform="translate(0.000000,512.000000) scale(0.100000,-0.100000)"
fill="#000000" stroke="none">
<path d="M2445 5076 c-72 -25 -2279 -1026 -2318 -1052 -117 -77 -159 -252 -93
-387 48 -99 26 -86 633 -383 l293 -142 2 -585 c3 -569 4 -586 23 -607 35 -39
252 -177 384 -244 302 -154 604 -243 935 -277 150 -15 493 -7 636 16 199 31
424 92 599 165 41 16 78 30 82 30 5 0 9 -78 9 -173 l0 -174 -41 -18 c-56 -26
-117 -90 -148 -155 -26 -55 -26 -56 -29 -355 -4 -335 0 -364 51 -395 29 -18
52 -20 270 -20 262 0 284 4 307 60 7 18 10 132 8 351 -3 316 -4 325 -26 367
-33 62 -87 118 -138 142 l-44 22 0 232 0 233 27 12 c43 20 246 157 268 181 19
21 20 40 25 608 l5 585 405 196 c370 179 410 201 461 251 66 65 89 122 89 219
0 115 -65 218 -169 270 -31 16 -560 255 -1176 532 l-1120 503 -85 3 c-53 2
-100 -2 -125 -11z m1285 -710 c619 -279 1135 -517 1147 -529 31 -32 36 -66 16
-106 -16 -31 -65 -57 -566 -302 l-548 -268 -37 37 c-25 25 -218 135 -579 330
-299 162 -556 298 -572 305 -68 25 -149 -40 -137 -112 3 -19 15 -44 27 -57 12
-13 259 -152 550 -311 291 -158 525 -291 521 -294 -4 -4 -222 -112 -485 -239
-442 -215 -480 -232 -520 -228 -27 4 -185 75 -447 203 -223 109 -477 232 -565
275 -88 43 -268 130 -400 195 -132 64 -379 184 -549 267 -169 82 -317 154
-327 161 -27 17 -51 72 -43 101 9 39 42 62 169 119 1565 708 2102 950 2119
958 12 5 39 7 61 5 26 -2 430 -179 1165 -510z m-1908 -1673 l631 -306 78 -5
c43 -2 98 0 122 6 24 7 252 113 506 237 255 124 465 225 467 225 2 0 4 -225 4
-501 l0 -500 -73 -33 c-469 -214 -1016 -272 -1515 -160 -284 64 -541 172 -794
336 l-78 51 0 478 c0 344 3 479 11 479 6 0 295 -138 641 -307z m2128 -172 l0
-478 -55 -37 -55 -36 0 493 0 493 43 21 c23 12 48 22 55 22 9 1 12 -101 12
-478z m-175 -1465 c60 -26 65 -48 65 -301 l0 -225 -105 0 -105 0 0 233 c0 257
2 266 64 293 39 17 40 17 81 0z"/>
</g>
</svg>
